<svg version="1.1" xmlns="http://www.w3.org/2000/svg" xmlns:xlink="http://www.w3.org/1999/xlink" width="512.000000pt" height="512.000000pt" viewBox="0,0,256,256"><g fill="#ffffff" fill-rule="nonzero" stroke="none" stroke-width="1" stroke-linecap="butt" stroke-linejoin="miter" stroke-miterlimit="10" stroke-dasharray="" stroke-dashoffset="0" font-family="none" font-weight="none" font-size="none" text-anchor="none" style="mix-blend-mode: normal"><g transform="translate(0.00021,-0.02571) scale(0.5,0.5)"><g transform="translate(0,512) scale(0.1,-0.1)"><path d="M1135,5111c-11,-5 -29,-19 -40,-31c-18,-20 -20,-40 -25,-204l-5,-181l-370,-5c-313,-4 -376,-8 -411,-22c-97,-38 -182,-111 -229,-196c-57,-101 -55,-38 -55,-1693c0,-990 4,-1545 10,-1580c33,-173 182,-314 362,-339c35,-5 397,-10 806,-10h742v-24c0,-58 -32,-267 -51,-331c-48,-161 -126,-255 -227,-275c-87,-16 -103,-23 -124,-51c-40,-54 -17,-137 44,-158c43,-15 1953,-15 1996,0c61,21 84,104 44,158c-21,28 -37,35 -124,51c-101,20 -179,114 -227,275c-19,64 -51,273 -51,331v24h743c408,0 770,5 805,10c180,25 329,166 362,339c6,35 10,590 10,1580c0,1281 -3,1536 -14,1586c-34,143 -139,256 -284,306c-53,18 -107,19 -1479,19h-1423v170c0,189 -7,218 -60,245c-24,13 -84,15 -367,14c-186,0 -347,-4 -358,-8zM1710,4403l5,-503l27,-27c23,-23 38,-28 101,-32l74,-6l-212,-282l-211,-281l-212,281l-211,282l67,5c37,3 77,11 89,18c53,30 53,33 53,562v490l213,-2l212,-3zM1068,4268l-3,-213l-133,-5l-134,-5l-24,-30c-26,-33 -31,-83 -13,-118c27,-49 668,-895 684,-901c25,-9 71,-7 97,5c13,5 174,210 357,454c376,502 373,495 308,560l-35,35h-126h-126v215v215h1408c1343,0 1409,-1 1447,-19c49,-22 93,-65 114,-111c14,-31 16,-157 19,-1232l2,-1198h-2350h-2350l2,1198c3,1318 -1,1231 64,1296c64,64 74,66 452,66h342zM4905,1465c0,-237 0,-240 -25,-285c-14,-24 -45,-58 -68,-75l-44,-30h-2208h-2208l-44,30c-23,17 -54,51 -68,75c-24,44 -25,51 -28,273c-2,126 -1,235 2,243c5,12 318,14 2348,12l2343,-3zM2990,790c0,-79 25,-246 51,-340c17,-60 54,-149 97,-232c2,-5 -258,-8 -578,-8c-320,0 -580,3 -578,8c43,83 80,172 97,232c26,94 51,261 51,340v60h430h430z"></path><path d="M3406,4018c-23,-23 -36,-50 -45,-90l-12,-57l-40,25c-107,67 -133,60 -262,-64c-169,-164 -185,-200 -127,-294c17,-27 28,-53 25,-58c-3,-4 -22,-11 -43,-15c-55,-9 -101,-40 -118,-80c-20,-48 -20,-322 0,-370c17,-40 63,-71 118,-80c21,-4 40,-11 43,-15c3,-5 -8,-31 -25,-58c-58,-94 -42,-130 127,-294c129,-124 155,-131 262,-64l40,25l12,-57c9,-40 22,-67 45,-89l32,-33h190c186,0 189,0 215,24c16,15 33,48 43,85c10,34 21,61 26,61c5,0 27,-12 49,-26c53,-33 98,-40 135,-21c47,24 260,248 268,282c6,23 0,44 -28,98c-23,45 -31,69 -23,72c7,2 38,11 70,20c91,25 97,40 97,255c0,215 -6,230 -97,255c-32,9 -63,18 -70,20c-8,3 0,27 23,72c28,54 34,75 28,98c-8,34 -221,258 -268,282c-37,19 -82,12 -135,-21c-22,-14 -44,-26 -49,-26c-5,0 -16,27 -26,61c-10,37 -27,70 -43,85c-26,24 -29,24 -215,24h-190zM3710,3773c21,-77 32,-90 98,-120c70,-31 94,-29 167,12l62,34l44,-45l44,-45l-32,-59c-39,-70 -41,-107 -9,-175c29,-63 36,-69 116,-92l65,-19v-64v-64l-65,-19c-80,-23 -87,-29 -116,-92c-32,-68 -30,-105 9,-175l32,-59l-44,-45l-44,-45l-62,34c-73,41 -97,43 -167,12c-66,-30 -77,-43 -98,-120l-17,-62l-66,-3l-66,-3l-11,43c-20,77 -22,83 -39,102c-22,26 -110,66 -146,66c-16,0 -55,-15 -86,-34l-57,-34l-47,48l-47,47l30,49c43,70 46,92 22,157c-26,70 -60,99 -133,116l-57,12v69v69l57,12c73,17 107,46 133,116c24,65 21,87 -22,157l-30,49l47,47l47,48l57,-34c66,-40 98,-42 166,-10c62,29 80,49 95,106c22,88 15,81 87,78l66,-3z"></path><path d="M3539,3506c-135,-39 -229,-165 -229,-306c0,-110 51,-205 143,-264c194,-126 443,-18 487,212c25,135 -57,288 -184,343c-62,26 -155,33 -217,15zM3708,3265c15,-18 22,-39 22,-66c0,-114 -165,-141 -200,-33c-37,110 101,187 178,99z"></path><path d="M681,2744c-38,-32 -49,-80 -27,-123c33,-64 -1,-61 834,-61c515,0 769,3 790,11c69,24 87,116 33,170l-29,29h-785h-785z"></path><path d="M725,2343c-88,-23 -111,-140 -37,-190c25,-17 58,-18 489,-18h463l31,32c45,44 45,102 0,146l-31,32l-448,2c-246,0 -456,-1 -467,-4z"></path><path d="M2486,1585c-124,-44 -176,-209 -100,-318c113,-160 366,-96 382,98c13,160 -132,274 -282,220z"></path></g></g></g></svg>