<?xml version="1.0" standalone="no"?>
<!DOCTYPE svg PUBLIC "-//W3C//DTD SVG 20010904//EN"
 "http://www.w3.org/TR/2001/REC-SVG-20010904/DTD/svg10.dtd">
<svg version="1.0" xmlns="http://www.w3.org/2000/svg"
 width="2000.000000pt" height="2000.000000pt" viewBox="0 0 2000.000000 2000.000000"
 preserveAspectRatio="xMidYMid meet">

<g transform="translate(0.000000,2000.000000) scale(0.100000,-0.100000)"
fill="#000000" stroke="none">
<path d="M6585 14276 c-122 -17 -249 -48 -233 -57 7 -3 41 -9 75 -12 87 -9
235 -59 325 -111 125 -71 206 -136 349 -283 315 -323 528 -600 1129 -1468 409
-591 529 -745 764 -981 332 -332 622 -503 950 -560 124 -22 308 -15 436 17
l95 23 -114 13 c-239 27 -410 113 -596 298 -157 157 -223 254 -640 945 -677
1122 -960 1505 -1330 1800 -168 133 -392 257 -569 315 -198 64 -454 88 -641
61z"/>
<path d="M9955 14280 c-103 -13 -268 -52 -253 -60 7 -4 41 -10 76 -14 86 -8
236 -60 329 -112 118 -67 209 -142 345 -282 240 -249 455 -514 745 -922 96
-135 179 -245 183 -245 5 0 59 79 121 175 61 96 145 223 185 281 41 59 74 110
74 114 0 13 -168 230 -264 341 -334 389 -730 640 -1121 709 -108 19 -324 27
-420 15z"/>
<path d="M13340 14284 c-66 -8 -165 -25 -234 -41 -79 -18 -73 -27 22 -37 132
-13 317 -93 461 -199 157 -116 471 -463 730 -806 135 -179 248 -337 594 -836
440 -632 519 -735 752 -974 337 -346 641 -528 975 -587 126 -22 300 -15 430
17 l95 23 -101 12 c-141 17 -215 38 -319 89 -119 59 -203 124 -321 248 -122
128 -228 288 -599 902 -518 858 -725 1166 -988 1470 -328 381 -725 631 -1114
701 -87 15 -316 26 -383 18z"/>
<path d="M6184 14160 c-58 -12 -102 -32 -207 -94 -137 -81 -248 -167 -386
-301 -335 -325 -569 -655 -1180 -1667 -373 -619 -470 -767 -596 -905 -122
-135 -303 -254 -458 -302 -37 -11 -117 -26 -178 -32 l-111 -13 43 -13 c75 -22
220 -43 306 -43 181 0 342 39 529 129 214 103 379 226 594 441 235 234 353
387 785 1010 562 811 724 1024 1041 1371 129 141 193 200 297 279 66 49 68 46
-47 91 -138 53 -310 73 -432 49z"/>
<path d="M9530 14160 c-93 -20 -285 -132 -445 -261 -164 -133 -447 -443 -582
-639 l-31 -45 137 -205 c75 -113 161 -244 191 -292 l55 -87 74 107 c428 614
839 1103 1070 1273 l74 54 -61 27 c-108 49 -198 69 -322 73 -63 2 -135 0 -160
-5z"/>
<path d="M12881 14160 c-183 -39 -514 -286 -763 -568 -271 -309 -473 -608
-992 -1465 -440 -728 -507 -827 -658 -977 -72 -72 -244 -200 -269 -200 -5 0
-9 -4 -9 -8 0 -18 112 -35 260 -39 l156 -5 74 37 c298 149 636 462 949 879 54
72 228 318 386 546 572 824 750 1059 1062 1395 132 143 196 202 292 270 l54
39 -64 29 c-111 49 -195 68 -319 72 -63 2 -135 0 -159 -5z"/>
<path d="M7879 12294 c-590 -974 -659 -1075 -848 -1224 -163 -129 -307 -190
-506 -213 l-110 -13 95 -23 c128 -31 304 -38 431 -17 450 74 880 402 1355
1032 63 83 114 156 114 162 0 9 -306 459 -360 529 -17 21 -20 17 -171 -233z"/>
<path d="M12006 12270 l-187 -270 22 -32 c75 -108 244 -323 337 -429 503 -573
990 -816 1472 -733 51 9 109 21 128 28 34 12 31 13 -70 24 -242 26 -426 120
-614 314 -141 145 -227 274 -674 1016 -117 193 -215 352 -219 352 -4 0 -92
-121 -195 -270z"/>
<path d="M7424 10010 c-106 -21 -210 -104 -261 -208 -25 -51 -28 -68 -28 -157
0 -93 2 -105 32 -166 39 -79 102 -140 181 -177 50 -24 70 -27 157 -27 83 0
108 4 149 23 109 50 183 138 212 252 69 270 -166 514 -442 460z"/>
<path d="M5210 8370 l0 -1580 320 0 320 0 0 1580 0 1580 -320 0 -320 0 0
-1580z"/>
<path d="M6200 8370 l0 -1580 318 2 317 3 3 1578 2 1577 -320 0 -320 0 0
-1580z"/>
<path d="M3700 9110 c-194 -27 -365 -78 -535 -160 -96 -46 -255 -143 -255
-155 0 -4 63 -98 140 -210 l141 -204 47 33 c107 77 296 153 449 182 61 11 122
15 198 12 94 -4 119 -9 173 -33 110 -50 169 -138 179 -271 l6 -74 -318 0
c-364 0 -468 -11 -635 -66 -247 -82 -402 -230 -454 -437 -49 -190 -18 -425 76
-585 45 -77 169 -198 254 -248 159 -94 287 -127 489 -128 163 -1 225 12 354
76 64 32 106 62 178 131 l93 89 0 -136 0 -136 300 0 300 0 0 789 c0 828 -2
877 -46 1016 -79 245 -276 412 -583 492 -84 22 -121 26 -291 28 -107 2 -224 0
-260 -5z m538 -1432 c-7 -154 -52 -239 -165 -314 -83 -55 -160 -76 -273 -77
-158 0 -265 46 -317 138 -28 50 -32 159 -7 211 33 69 118 116 238 134 28 4
158 8 290 9 l239 1 -5 -102z"/>
<path d="M8904 9105 c-242 -36 -480 -125 -686 -257 l-78 -50 18 -26 c11 -15
74 -107 141 -204 67 -98 127 -178 132 -178 6 0 25 11 43 25 52 40 204 111 306
143 130 41 231 56 347 50 156 -8 252 -57 305 -155 25 -46 48 -138 48 -194 l0
-27 -367 -5 c-352 -4 -373 -5 -474 -30 -387 -93 -572 -291 -587 -628 -6 -153
13 -253 75 -379 39 -80 59 -108 132 -180 120 -118 219 -173 399 -222 106 -29
346 -31 442 -4 117 32 232 100 328 192 48 46 88 84 90 84 1 0 2 -61 2 -135 l0
-135 298 2 297 3 3 740 c2 472 -1 778 -8 846 -25 253 -119 436 -283 553 -127
90 -263 144 -431 171 -112 18 -366 18 -492 0z m564 -1437 c-3 -97 -8 -120 -30
-163 -55 -107 -185 -193 -322 -215 -113 -18 -251 7 -328 57 -105 70 -129 235
-46 329 73 83 163 102 492 103 l238 1 -4 -112z"/>
<path d="M11555 9104 c-141 -31 -297 -114 -411 -217 -29 -26 -55 -47 -58 -47
-3 0 -6 54 -6 120 l0 120 -315 0 -315 0 0 -1145 0 -1145 314 0 315 0 3 703 c4
767 3 748 65 876 78 161 294 271 479 242 157 -24 247 -112 296 -287 22 -78 22
-91 26 -807 l3 -727 317 2 317 3 3 695 c4 896 -2 963 -109 1180 -47 95 -63
116 -158 211 -93 92 -118 111 -201 152 -52 25 -122 53 -155 62 -87 24 -320 29
-410 9z"/>
<path d="M13775 9105 c-227 -42 -395 -118 -573 -261 -208 -166 -348 -396 -396
-653 -51 -266 -17 -559 89 -778 104 -213 301 -410 523 -522 68 -34 258 -101
287 -101 17 0 18 -12 11 -184 l-7 -183 38 -7 c21 -3 131 -6 246 -6 l207 0 1
28 c1 15 4 98 8 186 l6 158 72 19 c152 38 319 120 461 226 77 57 212 180 212
193 0 9 -358 414 -370 418 -4 2 -25 -18 -46 -44 -90 -110 -262 -220 -392 -250
-98 -23 -254 -15 -349 18 -252 89 -393 298 -393 580 1 195 48 318 170 439 132
131 279 186 475 176 179 -8 357 -84 490 -209 l65 -60 23 28 c12 16 86 112 164
214 l143 185 -71 68 c-164 159 -418 281 -671 322 -112 18 -326 18 -423 0z"/>
<path d="M15930 9114 c-178 -22 -388 -81 -540 -151 -86 -40 -264 -146 -275
-163 -3 -5 58 -101 135 -214 l141 -204 52 35 c80 54 181 102 291 138 135 44
234 59 358 53 85 -4 114 -9 166 -33 111 -50 171 -142 180 -272 l5 -73 -319 0
c-339 0 -452 -10 -589 -51 -282 -85 -439 -229 -501 -459 -26 -99 -24 -292 5
-394 59 -211 180 -357 384 -462 135 -70 251 -96 427 -98 160 -1 226 11 335 63
86 41 138 79 222 162 l73 73 0 -137 0 -137 300 0 301 0 -3 833 c-4 824 -4 833
-26 912 -39 141 -94 239 -186 330 -93 91 -160 134 -286 182 -147 55 -206 64
-420 68 -107 2 -211 1 -230 -1z m510 -1409 c0 -153 -42 -247 -147 -326 -86
-66 -172 -93 -293 -92 -219 0 -340 89 -340 251 0 132 79 206 250 231 30 5 162
9 293 10 l237 1 0 -75z"/>
<path d="M7182 7938 l3 -1143 318 -3 317 -2 0 1145 0 1145 -320 0 -320 0 2
-1142z"/>
<path d="M11069 6413 c-30 -43 -55 -81 -57 -85 -2 -4 27 -8 65 -8 67 0 69 1
137 55 l68 55 -67 30 c-37 16 -72 30 -79 30 -7 0 -37 -35 -67 -77z"/>
<path d="M4990 6085 l0 -365 25 0 25 0 0 365 0 365 -25 0 -25 0 0 -365z"/>
<path d="M11820 6326 l0 -125 -42 24 c-92 50 -185 41 -262 -26 -65 -57 -90
-115 -89 -208 0 -82 15 -128 59 -186 75 -99 218 -121 304 -49 l30 26 0 -31 0
-31 75 0 75 0 0 365 0 365 -75 0 -75 0 0 -124z m-42 -230 c37 -34 37 -35 37
-111 0 -76 0 -77 -37 -111 -64 -59 -149 -40 -188 41 -24 49 -25 83 -6 130 38
91 125 114 194 51z"/>
<path d="M6966 6424 c-19 -19 -20 -36 -4 -52 7 -7 18 -12 24 -12 14 0 44 27
44 40 0 5 -7 16 -16 24 -8 9 -19 16 -24 16 -5 0 -16 -7 -24 -16z"/>
<path d="M5325 6375 c-54 -49 -58 -55 -35 -55 15 0 45 16 74 40 26 22 49 40
51 40 2 0 25 -18 51 -40 29 -24 59 -40 74 -40 23 1 19 6 -35 55 -80 72 -100
72 -180 0z"/>
<path d="M9899 6245 c-30 -10 -60 -29 -83 -55 -32 -36 -36 -46 -36 -97 0 -52
3 -59 39 -94 23 -21 62 -44 93 -54 94 -31 128 -53 128 -80 0 -53 -108 -53
-195 -1 l-39 24 -33 -47 -33 -46 23 -17 c48 -37 139 -63 217 -62 83 0 117 13
164 63 25 26 30 42 34 91 7 95 -18 121 -165 174 -92 33 -116 54 -94 80 19 23
105 20 158 -4 l43 -19 25 43 c14 23 25 46 25 50 0 4 -25 19 -56 33 -68 31
-152 38 -215 18z"/>
<path d="M10402 6244 c-48 -13 -86 -29 -120 -52 -11 -8 -7 -18 18 -53 17 -24
34 -44 38 -43 4 0 25 9 47 19 22 10 63 20 92 23 45 4 55 1 77 -21 14 -15 26
-35 26 -45 0 -18 -9 -20 -107 -23 -86 -3 -115 -8 -143 -25 -50 -29 -80 -78
-80 -131 0 -91 52 -152 148 -174 63 -15 123 -1 165 39 l27 26 0 -32 0 -32 70
0 70 0 0 183 c0 100 -5 199 -11 220 -31 112 -163 163 -317 121z m178 -323 c0
-89 -168 -125 -178 -38 -6 51 16 63 121 66 56 1 57 1 57 -28z"/>
<path d="M12265 6251 c-158 -39 -239 -192 -190 -359 20 -65 63 -115 129 -150
94 -48 242 -33 323 35 l22 18 -40 44 -40 44 -37 -20 c-75 -42 -141 -37 -194
14 -53 51 -46 53 162 53 l190 0 0 73 c0 48 -6 85 -19 112 -47 105 -184 165
-306 136z m109 -125 c34 -14 66 -50 66 -73 0 -10 -28 -13 -115 -13 -63 0 -115
4 -115 9 0 18 44 64 74 77 40 17 49 17 90 0z"/>
<path d="M10840 6064 c0 -215 7 -250 61 -299 77 -70 183 -73 252 -7 l27 26 0
-32 0 -32 75 0 75 0 0 265 0 265 -75 0 -75 0 0 -165 c0 -181 -7 -211 -55 -233
-42 -19 -83 -15 -110 13 -25 24 -25 26 -25 205 l0 180 -75 0 -75 0 0 -186z"/>
<path d="M2980 6221 c-176 -62 -217 -318 -70 -443 49 -43 98 -58 181 -58 94 1
187 48 174 89 -8 25 -18 26 -36 4 -8 -9 -32 -24 -54 -34 -122 -56 -282 21
-302 145 l-6 36 223 0 223 0 -6 54 c-17 165 -170 262 -327 207z m192 -60 c46
-30 88 -95 88 -139 0 -22 -1 -22 -196 -22 l-196 0 7 38 c17 93 90 152 191 152
49 0 68 -5 106 -29z"/>
<path d="M4012 6221 c-66 -23 -114 -68 -142 -134 -33 -76 -26 -186 15 -253 45
-72 109 -108 201 -112 85 -5 133 9 180 50 27 24 32 33 23 44 -16 20 -26 18
-57 -11 -58 -54 -175 -58 -247 -8 -104 73 -117 255 -23 339 80 73 207 73 286
1 20 -19 24 -19 38 -5 14 14 12 19 -26 51 -67 57 -154 71 -248 38z"/>
<path d="M4534 6226 c-105 -33 -169 -129 -168 -251 2 -156 103 -255 261 -255
103 0 214 57 183 95 -10 13 -16 11 -44 -9 -131 -98 -317 -33 -351 122 l-7 32
221 0 221 0 0 48 c-1 95 -71 190 -163 217 -60 18 -98 18 -153 1z m192 -72 c40
-32 70 -82 76 -124 l3 -25 -185 -3 c-101 -1 -190 0 -196 2 -19 7 3 78 39 121
42 52 79 66 159 62 57 -2 72 -7 104 -33z"/>
<path d="M5355 6231 c-121 -31 -193 -141 -183 -275 6 -76 35 -133 88 -178 49
-43 98 -58 181 -58 94 1 187 48 174 89 -8 25 -18 26 -36 4 -8 -9 -32 -24 -54
-34 -122 -56 -282 21 -302 145 l-6 36 223 0 223 0 -6 54 c-9 88 -55 159 -129
197 -42 21 -129 32 -173 20z m167 -70 c46 -30 88 -95 88 -139 0 -22 -1 -22
-195 -22 -194 0 -195 0 -195 22 0 44 42 109 88 139 38 24 57 29 107 29 50 0
69 -5 107 -29z"/>
<path d="M5979 6231 c-42 -14 -72 -32 -106 -64 l-33 -31 0 47 c0 43 -2 47 -25
47 l-25 0 0 -255 0 -255 25 0 25 0 0 148 c0 203 19 261 100 302 53 27 143 27
188 0 66 -40 72 -64 72 -267 l0 -183 25 0 25 0 0 179 c0 106 -5 192 -11 212
-14 40 -53 85 -91 105 -34 17 -134 26 -169 15z"/>
<path d="M6575 6231 c-145 -38 -224 -185 -181 -334 32 -111 124 -177 246 -177
97 0 202 54 186 95 -7 20 -30 19 -47 -2 -41 -49 -153 -67 -224 -34 -203 92
-140 411 81 411 63 0 100 -13 135 -47 23 -21 30 -23 49 -13 l22 12 -24 25
c-50 54 -165 85 -243 64z"/>
<path d="M7297 6230 c-38 -10 -92 -34 -114 -52 -9 -7 -10 -16 -3 -28 9 -16 13
-15 66 11 45 23 70 29 121 29 104 0 153 -43 153 -134 l0 -46 -95 0 c-130 0
-192 -15 -232 -55 -29 -29 -33 -39 -33 -88 0 -96 63 -147 180 -147 69 0 122
19 163 57 l27 27 0 -42 c0 -35 3 -42 20 -42 19 0 20 7 20 193 0 228 -9 261
-81 298 -48 24 -135 33 -192 19z m223 -317 c0 -98 -64 -153 -177 -153 -73 0
-118 25 -131 72 -17 63 18 121 78 131 14 2 71 5 128 6 l102 1 0 -57z"/>
<path d="M8104 6226 c-105 -33 -169 -129 -168 -251 2 -156 103 -255 261 -255
103 0 214 57 183 95 -10 13 -16 11 -44 -9 -131 -98 -317 -33 -351 122 l-7 32
221 0 221 0 0 48 c-1 95 -71 190 -163 217 -60 18 -98 18 -153 1z m192 -72 c40
-32 70 -82 76 -124 l3 -25 -185 -3 c-101 -1 -190 0 -196 2 -19 7 3 78 39 121
42 52 79 66 159 62 57 -2 72 -7 104 -33z"/>
<path d="M8740 6231 c-47 -15 -88 -41 -109 -67 l-21 -27 0 47 c0 42 -2 46 -25
46 l-25 0 0 -255 0 -255 25 0 25 0 0 167 c0 149 2 171 21 210 57 117 245 128
303 17 18 -34 21 -61 24 -216 l4 -178 24 0 24 0 0 170 c0 150 2 175 20 210 33
64 72 85 162 85 68 0 79 -3 103 -25 51 -48 55 -65 55 -260 l0 -180 25 0 25 0
0 176 c0 106 -5 192 -12 216 -15 49 -74 103 -130 118 -84 23 -202 -15 -244
-78 l-22 -32 -25 39 c-14 21 -42 46 -62 55 -42 20 -129 29 -165 17z"/>
<path d="M3447 6118 c47 -62 90 -118 95 -124 5 -7 -20 -47 -65 -105 -40 -52
-85 -111 -101 -131 l-28 -38 28 0 c25 0 40 15 113 110 46 61 87 110 91 110 4
0 45 -49 91 -110 72 -95 87 -110 112 -110 l29 0 -28 38 c-16 20 -61 79 -101
130 -41 53 -70 99 -66 105 3 7 44 60 90 119 46 58 83 109 83 112 0 3 -11 6
-24 6 -20 0 -42 -22 -102 -100 -42 -55 -80 -100 -84 -100 -4 0 -42 45 -85 100
-66 86 -82 100 -106 100 -29 0 -28 -2 58 -112z"/>
<path d="M6960 5975 l0 -255 25 0 25 0 0 255 0 255 -25 0 -25 0 0 -255z"/>
</g>
</svg>
